<?xml version="1.0" encoding="UTF-8"?><svg id="Layer_1" xmlns="http://www.w3.org/2000/svg" viewBox="0 0 600 190"><defs><style>.cls-1{fill:#fff;}.cls-2{fill:#4d4d4d;}</style></defs><g id="Layer_2"><g id="Layer_2-2"><path class="cls-2" d="M584.11,190H15.89C6.98,189.85-.13,182.52,0,173.61V16.39C-.13,7.48,6.98,.15,15.89,0H584.11c8.91,.15,16.02,7.48,15.89,16.39V173.61c.13,8.91-6.98,16.24-15.89,16.39"/><g><path class="cls-1" d="M261.33,97.94c-10.08,.04-18.21,8.24-18.17,18.32,.04,10.08,8.24,18.21,18.32,18.17,10.05-.04,18.17-8.2,18.17-18.24,.13-9.94-7.82-18.11-17.76-18.24-.19,0-.37,0-.56,0Zm0,29.32c-5.54,0-10.31-4.56-10.31-11.06s4.8-11.07,10.31-11.07,10.3,4.49,10.3,11.07-4.77,11.06-10.3,11.06Z"/><polygon class="cls-1" points="540.03 99.01 530.85 122.28 530.57 122.28 521.04 99.01 512.41 99.01 526.7 131.53 518.56 149.62 526.91 149.62 548.94 99.01 540.03 99.01"/><path class="cls-1" d="M495.57,97.84c-5.76,0-11.81,2.55-14.3,8.22l7.12,2.97c1.52-2.97,4.35-3.94,7.32-3.94,4.14,0,8.35,2.49,8.42,6.9v.6c-2.57-1.36-5.44-2.07-8.35-2.06-7.68,0-15.47,4.21-15.47,12.08,0,7.18,6.29,11.81,13.33,11.81,5.39,0,8.35-2.42,10.22-5.25h.28v4.15h7.74v-20.62c0-9.53-7.11-14.84-16.29-14.84Zm-.96,29.41c-2.62,0-6.29-1.32-6.29-4.56,0-4.14,4.56-5.76,8.5-5.76,2.56-.07,5.08,.55,7.32,1.8-.59,4.83-4.67,8.48-9.53,8.53h0Z"/><path class="cls-1" d="M213.76,103.54v7.74h18.54c-.56,4.36-2.01,7.54-4.22,9.76-2.7,2.7-6.91,5.67-14.32,5.67-11.38-.25-20.41-9.67-20.17-21.06,.24-11.04,9.13-19.93,20.17-20.17,5.2-.07,10.22,1.92,13.97,5.53l5.46-5.46c-5.16-5.11-12.17-7.93-19.43-7.82-15.63,0-28.81,12.72-28.81,28.35s13.14,28.35,28.81,28.35c8.44,0,14.81-2.77,19.78-7.95,5.12-5.12,6.72-12.31,6.72-18.12,.02-1.61-.12-3.22-.41-4.8l-26.09-.04Z"/><path class="cls-1" d="M445.85,79.68h-19.2v53.67h8.01v-20.34h11.19c8.88,0,17.61-6.42,17.61-16.66s-8.72-16.67-17.6-16.67Zm.21,25.87h-11.4v-18.4h11.4c5.08,0,9.2,4.11,9.2,9.19,0,5.08-4.11,9.2-9.19,9.2,0,0,0,0-.01,0Z"/><rect class="cls-1" x="467.88" y="79.68" width="8.01" height="53.67"/><path class="cls-1" d="M301.31,97.94c-10.08,.04-18.21,8.24-18.17,18.32,.04,10.08,8.24,18.21,18.32,18.17,10.05-.04,18.17-8.2,18.17-18.24,.13-9.94-7.82-18.11-17.76-18.24-.19,0-.37,0-.56,0Zm0,29.32c-5.54,0-10.31-4.56-10.31-11.06s4.8-11.07,10.31-11.07,10.3,4.49,10.3,11.07-4.77,11.06-10.3,11.06Z"/><path class="cls-1" d="M408.27,109.55c-1.52-4.08-6.15-11.62-15.62-11.62s-17.23,7.4-17.23,18.24c-.21,9.87,7.62,18.03,17.49,18.24,.21,0,.42,0,.63,0,6.11,.03,11.83-3,15.22-8.08l-6.17-4.15c-2.08,3.04-4.92,5.05-9,5.05-3.81,.15-7.32-2.05-8.85-5.53l24.37-10.08-.84-2.07Zm-24.89,6.09c-.36-5.52,3.83-10.28,9.35-10.64,.06,0,.13,0,.19-.01,3.19,0,5.89,1.59,6.78,3.84l-16.32,6.81Z"/><rect class="cls-1" x="363.52" y="79.68" width="8.03" height="53.67"/><path class="cls-1" d="M350.39,102.03h-.28c-2.47-2.67-5.96-4.16-9.6-4.08-9.13,0-17.5,8.03-17.5,18.33s8.37,18.19,17.5,18.19c3.65,.09,7.16-1.43,9.6-4.15h.28v2.63c0,6.98-3.74,10.72-9.76,10.72-4.91,0-7.95-3.52-9.2-6.5l-6.99,2.88c2.7,6.56,9.1,10.82,16.19,10.78,9.41,0,17.36-5.53,17.36-19.01v-32.77h-7.6v2.99Zm-9.2,25.24c-5.54,0-10.17-4.63-10.17-10.99s4.63-11.14,10.17-11.14,9.75,4.7,9.75,11.14-4.28,10.98-9.75,10.98h0Z"/><path class="cls-1" d="M199.53,60.3c7.22,0,11.97-4.18,11.97-13h-11.09v2.88h7.18c-.22,4.19-3.51,6.83-8.07,6.83-5.21-.05-9.4-4.32-9.35-9.53,0-.05,0-.1,0-.15-.09-5.23,4.07-9.54,9.3-9.63,.01,0,.03,0,.04,0,2.25,.01,4.41,.85,6.09,2.34l2.46-2.34c-2.32-2.16-5.38-3.35-8.55-3.34-7.16,0-12.96,5.8-12.96,12.96s5.8,12.96,12.96,12.96v.02Z"/><polygon class="cls-1" points="231.47 56.74 219.55 56.74 219.55 49.12 229.63 49.12 229.63 45.93 219.55 45.93 219.55 37.87 231.1 37.87 231.1 34.68 216.14 34.68 216.14 59.93 231.47 59.93 231.47 56.74"/><polygon class="cls-1" points="245.55 59.93 245.55 37.9 253.21 37.9 253.21 34.68 234.44 34.68 234.44 37.9 242.1 37.9 242.1 59.93 245.55 59.93"/><rect class="cls-1" x="266.15" y="34.68" width="3.41" height="25.25"/><polygon class="cls-1" points="285.13 59.93 285.13 37.9 292.8 37.9 292.8 34.68 274.03 34.68 274.03 37.9 281.7 37.9 281.7 59.93 285.13 59.93"/><path class="cls-1" d="M316.85,60.3c7.16,.11,13.05-5.6,13.16-12.76,.11-7.16-5.6-13.05-12.76-13.16-7.16-.11-13.05,5.6-13.16,12.76,0,.08,0,.15,0,.23-.07,7.07,5.6,12.86,12.66,12.93,.03,0,.06,0,.1,0Zm0-22.61c5.33,0,9.66,4.33,9.66,9.66,0,5.33-4.32,9.65-9.66,9.66-5.19-.03-9.38-4.26-9.34-9.46,0-.05,0-.1,0-.15-.15-5.21,3.94-9.55,9.15-9.7,.07,0,.13,0,.2,0h0Z"/><polygon class="cls-1" points="338.34 40.91 349.84 59.93 353.11 59.93 353.11 34.68 349.7 34.68 349.7 53.56 338.3 34.68 334.93 34.68 334.93 59.93 338.34 59.93 338.34 40.91"/><path class="cls-1" d="M109.3,88.15l16.64-16.64-61.27-34.78c-2.82-1.59-5.39-1.81-7.33-.89l51.96,52.31Z"/><path class="cls-1" d="M55.06,37.87c-.91,1.55-1.35,3.32-1.29,5.12v94.87c-.06,1.67,.31,3.32,1.08,4.8l52.27-52.28L55.06,37.87Z"/><path class="cls-1" d="M148.32,84.22l-19.6-11.14-17.28,17.28,17.28,17.4,19.59-11.13c6.01-3.44,6.01-9.02,0-12.42Z"/><path class="cls-1" d="M109.29,92.52l-52.32,52.31c1.98,1.14,4.7,.96,7.68-.69l61.29-34.83-16.65-16.79Z"/></g></g></g></svg>